/* XPM */
static char * fonts_A[] = {
"9 15 3 1",
" 	c None",
".	c #FFFFFF",
"+	c #000000",
".........",
".........",
"....+....",
"...+.+...",
"..+...+..",
".+.....+.",
".+.....+.",
".+.....+.",
".+++++++.",
".+.....+.",
".+.....+.",
".+.....+.",
".........",
".........",
"........."};
static char * fonts_B[] = {
"9 15 3 1",
" 	c None",
".	c #FFFFFF",
"+	c #000000",
".........",
".........",
".+++++...",
".+....+..",
".+.....+.",
".+....+..",
".+++++...",
".+....+..",
".+.....+.",
".+.....+.",
".+....+..",
".+++++...",
".........",
".........",
"........."};
static char * fonts_C[] = {
"9 15 3 1",
" 	c None",
".	c #FFFFFF",
"+	c #000000",
".........",
".........",
"..+++++..",
".+.....+.",
".+.......",
".+.......",
".+.......",
".+.......",
".+.......",
".+.......",
".+.....+.",
"..+++++..",
".........",
".........",
"........."};
static char * fonts_D[] = {
"9 15 3 1",
" 	c None",
".	c #FFFFFF",
"+	c #000000",
".........",
".........",
".+++++...",
".+....+..",
".+.....+.",
".+.....+.",
".+.....+.",
".+.....+.",
".+.....+.",
".+.....+.",
".+....+..",
".+++++...",
".........",
".........",
"........."};
static char * fonts_E[] = {
"9 15 3 1",
" 	c None",
".	c #FFFFFF",
"+	c #000000",
".........",
".........",
".+++++++.",
".+.......",
".+.......",
".+.......",
".+++++...",
".+.......",
".+.......",
".+.......",
".+.......",
".+++++++.",
".........",
".........",
"........."};
static char * fonts_F[] = {
"9 15 3 1",
" 	c None",
".	c #FFFFFF",
"+	c #000000",
".........",
".........",
".+++++++.",
".+.......",
".+.......",
".+.......",
".+++++...",
".+.......",
".+.......",
".+.......",
".+.......",
".+.......",
".........",
".........",
"........."};
static char * fonts_G[] = {
"9 15 3 1",
" 	c None",
".	c #FFFFFF",
"+	c #000000",
".........",
".........",
"..+++++..",
".+.....+.",
".+.......",
".+.......",
".+.......",
".+...+++.",
".+.....+.",
".+.....+.",
".+.....+.",
"..+++++..",
".........",
".........",
"........."};
static char * fonts_H[] = {
"9 15 3 1",
" 	c None",
".	c #FFFFFF",
"+	c #000000",
".........",
".........",
".+.....+.",
".+.....+.",
".+.....+.",
".+.....+.",
".+++++++.",
".+.....+.",
".+.....+.",
".+.....+.",
".+.....+.",
".+.....+.",
".........",
".........",
"........."};
static char * fonts_I[] = {
"9 15 3 1",
" 	c None",
".	c #FFFFFF",
"+	c #000000",
".........",
".........",
"..+++++..",
"....+....",
"....+....",
"....+....",
"....+....",
"....+....",
"....+....",
"....+....",
"....+....",
"..+++++..",
".........",
".........",
"........."};
static char * fonts_J[] = {
"9 15 3 1",
" 	c None",
".	c #FFFFFF",
"+	c #000000",
".........",
".........",
"....+++++",
"......+..",
"......+..",
"......+..",
"......+..",
"......+..",
"......+..",
"......+..",
".+....+..",
"..++++...",
".........",
".........",
"........."};
static char * fonts_K[] = {
"9 15 3 1",
" 	c None",
".	c #FFFFFF",
"+	c #000000",
".........",
".........",
".+.....+.",
".+....+..",
".+...+...",
".+..+....",
".+++.....",
".+.+.....",
".+..+....",
".+...+...",
".+....+..",
".+.....+.",
".........",
".........",
"........."};
static char * fonts_L[] = {
"9 15 3 1",
" 	c None",
".	c #FFFFFF",
"+	c #000000",
".........",
".........",
".+.......",
".+.......",
".+.......",
".+.......",
".+.......",
".+.......",
".+.......",
".+.......",
".+.......",
".+++++++.",
".........",
".........",
"........."};
static char * fonts_M[] = {
"9 15 3 1",
" 	c None",
".	c #FFFFFF",
"+	c #000000",
".........",
".........",
".+.....+.",
".+.....+.",
".++...++.",
".+.+.+.+.",
".+.+.+.+.",
".+..+..+.",
".+..+..+.",
".+.....+.",
".+.....+.",
".+.....+.",
".........",
".........",
"........."};
static char * fonts_N[] = {
"9 15 3 1",
" 	c None",
".	c #FFFFFF",
"+	c #000000",
".........",
".........",
".+.....+.",
".+.....+.",
".++....+.",
".+.+...+.",
".+..+..+.",
".+...+.+.",
".+....++.",
".+.....+.",
".+.....+.",
".+.....+.",
".........",
".........",
"........."};
static char * fonts_O[] = {
"9 15 3 1",
" 	c None",
".	c #FFFFFF",
"+	c #000000",
".........",
".........",
"..+++++..",
".+.....+.",
".+.....+.",
".+.....+.",
".+.....+.",
".+.....+.",
".+.....+.",
".+.....+.",
".+.....+.",
"..+++++..",
".........",
".........",
"........."};
static char * fonts_P[] = {
"9 15 3 1",
" 	c None",
".	c #FFFFFF",
"+	c #000000",
".........",
".........",
".++++++..",
".+.....+.",
".+.....+.",
".+.....+.",
".++++++..",
".+.......",
".+.......",
".+.......",
".+.......",
".+.......",
".........",
".........",
"........."};
static char * fonts_Q[] = {
"9 15 3 1",
" 	c None",
".	c #FFFFFF",
"+	c #000000",
".........",
".........",
"..+++++..",
".+.....+.",
".+.....+.",
".+.....+.",
".+.....+.",
".+.....+.",
".+.....+.",
".+.+...+.",
".+..+..+.",
"..+++++..",
".....+...",
"......++.",
"........."};
static char * fonts_R[] = {
"9 15 3 1",
" 	c None",
".	c #FFFFFF",
"+	c #000000",
".........",
".........",
".++++++..",
".+.....+.",
".+.....+.",
".+.....+.",
".++++++..",
".+..+....",
".+...+...",
".+....+..",
".+.....+.",
".+.....+.",
".........",
".........",
"........."};
static char * fonts_S[] = {
"9 15 3 1",
" 	c None",
".	c #FFFFFF",
"+	c #000000",
".........",
".........",
"..+++++..",
".+.....+.",
".+.....+.",
".+.......",
"..+++....",
".....++..",
".......+.",
".+.....+.",
".+.....+.",
"..+++++..",
".........",
".........",
"........."};
static char * fonts_T[] = {
"9 15 3 1",
" 	c None",
".	c #FFFFFF",
"+	c #000000",
".........",
".........",
".+++++++.",
"....+....",
"....+....",
"....+....",
"....+....",
"....+....",
"....+....",
"....+....",
"....+....",
"....+....",
".........",
".........",
"........."};
static char * fonts_U[] = {
"9 15 3 1",
" 	c None",
".	c #FFFFFF",
"+	c #000000",
".........",
".........",
".+.....+.",
".+.....+.",
".+.....+.",
".+.....+.",
".+.....+.",
".+.....+.",
".+.....+.",
".+.....+.",
".+.....+.",
"..+++++..",
".........",
".........",
"........."};
static char * fonts_V[] = {
"9 15 3 1",
" 	c None",
".	c #FFFFFF",
"+	c #000000",
".........",
".........",
".+.....+.",
".+.....+.",
".+.....+.",
"..+...+..",
"..+...+..",
"..+...+..",
"...+.+...",
"...+.+...",
"...+.+...",
"....+....",
".........",
".........",
"........."};
static char * fonts_W[] = {
"9 15 3 1",
" 	c None",
".	c #FFFFFF",
"+	c #000000",
".........",
".........",
".+.....+.",
".+.....+.",
".+.....+.",
".+.....+.",
".+..+..+.",
".+..+..+.",
".+..+..+.",
".+..+..+.",
".+.+.+.+.",
"..+...+..",
".........",
".........",
"........."};
static char * fonts_X[] = {
"9 15 3 1",
" 	c None",
".	c #FFFFFF",
"+	c #000000",
".........",
".........",
".+.....+.",
".+.....+.",
"..+...+..",
"...+.+...",
"....+....",
"....+....",
"...+.+...",
"..+...+..",
".+.....+.",
".+.....+.",
".........",
".........",
"........."};
static char * fonts_Y[] = {
"9 15 3 1",
" 	c None",
".	c #FFFFFF",
"+	c #000000",
".........",
".........",
".+.....+.",
".+.....+.",
"..+...+..",
"...+.+...",
"....+....",
"....+....",
"....+....",
"....+....",
"....+....",
"....+....",
".........",
".........",
"........."};
static char * fonts_Z[] = {
"9 15 3 1",
" 	c None",
".	c #FFFFFF",
"+	c #000000",
".........",
".........",
".+++++++.",
".......+.",
"......+..",
".....+...",
"....+....",
"...+.....",
"..+......",
".+.......",
".+.......",
".+++++++.",
".........",
".........",
"........."};
static char * fonts_[] = {
"9 15 3 1",
" 	c None",
".	c #FFFFFF",
"+	c #000000",
".........",
"...++++..",
"...+.....",
"...+.....",
"...+.....",
"...+.....",
"...+.....",
"...+.....",
"...+.....",
"...+.....",
"...+.....",
"...+.....",
"...++++..",
".........",
"........."};
static char * fonts_[] = {
"9 15 3 1",
" 	c None",
".	c #FFFFFF",
"+	c #000000",
".........",
".........",
".+.......",
"..+......",
"..+......",
"...+.....",
"....+....",
"....+....",
".....+...",
"......+..",
"......+..",
".......+.",
".........",
".........",
"........."};
static char * fonts_[] = {
"9 15 3 1",
" 	c None",
".	c #FFFFFF",
"+	c #000000",
".........",
".........",
".+.......",
"..+......",
"..+......",
"...+.....",
"....+....",
"....+....",
".....+...",
"......+..",
"......+..",
".......+.",
".........",
".........",
"........."};
static char * fonts_[] = {
"9 15 3 1",
" 	c None",
".	c #FFFFFF",
"+	c #000000",
".........",
"..++++...",
".....+...",
".....+...",
".....+...",
".....+...",
".....+...",
".....+...",
".....+...",
".....+...",
".....+...",
".....+...",
"..++++...",
".........",
"........."};
static char * fonts_[] = {
"9 15 3 1",
" 	c None",
".	c #FFFFFF",
"+	c #000000",
".........",
".........",
"....+....",
"...+.+...",
"..+...+..",
".+.....+.",
".........",
".........",
".........",
".........",
".........",
".........",
".........",
".........",
"........."};
static char * fonts_[] = {
"9 15 3 1",
" 	c None",
".	c #FFFFFF",
"+	c #000000",
".........",
".........",
".........",
".........",
".........",
".........",
".........",
".........",
".........",
".........",
".........",
".........",
"++++++++.",
".........",
"........."};
static char * fonts_[] = {
"9 15 3 1",
" 	c None",
".	c #FFFFFF",
"+	c #000000",
".........",
"...+.....",
"....+....",
".....+...",
".........",
".........",
".........",
".........",
".........",
".........",
".........",
".........",
".........",
".........",
"........."};

