/* XPM */
static char * fonts_3_xpm[] = {
"9 452 3 1",
" 	c None",
".	c #FFFFFF",
"+	c #000000",
".........",
".........",
".........",
".........",
".........",
".........",
"..+++++..",
".......+.",
".......+.",
"..++++++.",
".+.....+.",
".+....++.",
"..++++.+.",
".........",
".........",
".........",
".........",
".........",
".+.......",
".+.......",
".+.......",
".+.++++..",
".++....+.",
".+.....+.",
".+.....+.",
".+.....+.",
".++....+.",
".+.++++..",
".........",
".........",
".........",
".........",
".........",
".........",
".........",
".........",
"..+++++..",
".+.....+.",
".+.......",
".+.......",
".+.......",
".+.....+.",
"..+++++..",
".........",
".........",
".........",
".........",
".........",
".......+.",
".......+.",
".......+.",
"..++++.+.",
".+....++.",
".+.....+.",
".+.....+.",
".+.....+.",
".+....++.",
"..++++.+.",
".........",
".........",
".........",
".........",
".........",
".........",
".........",
".........",
"..+++++..",
".+.....+.",
".+.....+.",
".+++++++.",
".+.......",
".+.......",
"..+++++..",
".........",
".........",
".........",
".........",
".........",
"....+++..",
"...+...+.",
"...+...+.",
"...+.....",
"...+.....",
".+++++...",
"...+.....",
"...+.....",
"...+.....",
"...+.....",
".........",
".........",
".........",
".........",
".........",
".........",
".........",
".........",
"..++++.+.",
".+....+..",
".+....+..",
".+....+..",
"..++++...",
".+.......",
"..+++++..",
".+.....+.",
".+.....+.",
"..+++++..",
".........",
".........",
".+.......",
".+.......",
".+.......",
".+.++++..",
".++....+.",
".+.....+.",
".+.....+.",
".+.....+.",
".+.....+.",
".+.....+.",
".........",
".........",
".........",
".........",
".........",
"...++....",
".........",
".........",
"..+++....",
"....+....",
"....+....",
"....+....",
"....+....",
"....+....",
"..+++++..",
".........",
".........",
".........",
".........",
".........",
".....++..",
".........",
".........",
"....+++..",
"......+..",
"......+..",
"......+..",
"......+..",
"......+..",
".+....+..",
".+....+..",
".+....+..",
"..++++...",
".........",
".........",
".+.......",
".+.......",
".+.......",
".+.....+.",
".+...++..",
".+.++....",
".++......",
".+.++....",
".+...++..",
".+.....+.",
".........",
".........",
".........",
".........",
".........",
"..+++....",
"....+....",
"....+....",
"....+....",
"....+....",
"....+....",
"....+....",
"....+....",
"....+....",
"..+++++..",
".........",
".........",
".........",
".........",
".........",
".........",
".........",
".........",
".+++.++..",
".+..+..+.",
".+..+..+.",
".+..+..+.",
".+..+..+.",
".+..+..+.",
".+.....+.",
".........",
".........",
".........",
".........",
".........",
".........",
".........",
".........",
".+.++++..",
".++....+.",
".+.....+.",
".+.....+.",
".+.....+.",
".+.....+.",
".+.....+.",
".........",
".........",
".........",
".........",
".........",
".........",
".........",
".........",
"..+++++..",
".+.....+.",
".+.....+.",
".+.....+.",
".+.....+.",
".+.....+.",
"..+++++..",
".........",
".........",
".........",
".........",
".........",
".........",
".........",
".........",
".+.++++..",
".++....+.",
".+.....+.",
".+.....+.",
".+.....+.",
".++....+.",
".+.++++..",
".+.......",
".+.......",
".+.......",
".........",
".........",
".........",
".........",
".........",
"..++++.+.",
".+....++.",
".+.....+.",
".+.....+.",
".+.....+.",
".+....++.",
"..++++.+.",
".......+.",
".......+.",
".......+.",
".........",
".........",
".........",
".........",
".........",
".+..+++..",
"..++...+.",
"..+....+.",
"..+......",
"..+......",
"..+......",
"..+......",
".........",
".........",
".........",
".........",
".........",
".........",
".........",
".........",
"..+++++..",
".+.....+.",
".+.......",
"..+++++..",
".......+.",
".+.....+.",
"..+++++..",
".........",
".........",
".........",
".........",
".........",
".........",
"...+.....",
"...+.....",
".++++++..",
"...+.....",
"...+.....",
"...+.....",
"...+.....",
"...+...+.",
"....+++..",
".........",
".........",
".........",
".........",
".........",
".........",
".........",
".........",
".+....+..",
".+....+..",
".+....+..",
".+....+..",
".+....+..",
".+....+..",
"..++++.+.",
".........",
".........",
".........",
".........",
".........",
".........",
".........",
".........",
".+.....+.",
".+.....+.",
"..+...+..",
"..+...+..",
"...+.+...",
"...+.+...",
"....+....",
".........",
".........",
".........",
".........",
".........",
".........",
".........",
".........",
".+.....+.",
".+.....+.",
".+..+..+.",
".+..+..+.",
".+..+..+.",
".+.+.+.+.",
"..+...+..",
".........",
".........",
".........",
".........",
".........",
".........",
".........",
".........",
".+.....+.",
"..+...+..",
"...+.+...",
"....+....",
"...+.+...",
"..+...+..",
".+.....+.",
".........",
".........",
".........",
".........",
".........",
".........",
".........",
".........",
".+....+..",
".+....+..",
".+....+..",
".+....+..",
".+....+..",
".+...++..",
"..+++.+..",
"......+..",
".+....+..",
"..++++...",
".........",
".........",
".........",
".........",
".........",
".+++++++.",
"......+..",
".....+...",
"....+....",
"...+.....",
"..+......",
".+++++++.",
".........",
".........",
".........",
".........",
".....+++.",
"....+....",
"....+....",
"....+....",
".....+...",
"...++....",
"...++....",
".....+...",
"....+....",
"....+....",
"....+....",
".....+++.",
".........",
".........",
".........",
"....+....",
"....+....",
"....+....",
"....+....",
"....+....",
"....+....",
"....+....",
"....+....",
"....+....",
"....+....",
"....+....",
"....+....",
".........",
".........",
".........",
".+++.....",
"....+....",
"....+....",
"....+....",
"...+.....",
"....++...",
"....++...",
"...+.....",
"....+....",
"....+....",
"....+....",
".+++.....",
".........",
".........",
".........",
".........",
"..++...+.",
".+..+..+.",
".+...++..",
".........",
".........",
".........",
".........",
".........",
".........",
".........",
".........",
".........",
".........",
"........."};
